<?xml version="1.0" encoding="utf-8"?>
<!-- Generator: Adobe Illustrator 25.0.0, SVG Export Plug-In . SVG Version: 6.00 Build 0)  -->
<svg version="1.1" id="レイヤー_1" xmlns="http://www.w3.org/2000/svg" xmlns:xlink="http://www.w3.org/1999/xlink" x="0px"
	 y="0px" viewBox="0 0 500 25" style="enable-background:new 0 0 500 25;" xml:space="preserve">
<style type="text/css">
	.st0{fill:#2B292A;}
	.st1{fill:none;stroke:#2B292A;stroke-width:0.551;stroke-miterlimit:10;}
	.st2{fill:none;stroke:#21A4DD;stroke-width:0.25;}
</style>
<g>
	<path class="st0" d="M3.77,14.84v5.03c0,0.34,0.05,0.58,0.16,0.73c0.11,0.14,0.32,0.26,0.63,0.34v0.4H1.03v-0.4
		c0.31-0.08,0.52-0.19,0.63-0.33c0.11-0.14,0.16-0.38,0.16-0.73V5.88c0-0.35-0.05-0.59-0.16-0.74C1.56,5,1.35,4.89,1.03,4.82V4.42
		h3.53v0.39C4.25,4.9,4.04,5.01,3.93,5.15C3.82,5.29,3.77,5.54,3.77,5.88v7.02l9.12-7.14c0.32-0.25,0.48-0.45,0.48-0.61
		c0-0.18-0.16-0.3-0.47-0.35V4.42h4.46v0.39c-0.49,0.03-0.98,0.24-1.46,0.61l-6.87,5.33l7.56,9.57c0.18,0.23,0.35,0.39,0.51,0.46
		c0.16,0.08,0.4,0.13,0.72,0.14v0.4H13.7v-0.4c0.35-0.08,0.53-0.2,0.53-0.36c0-0.1-0.18-0.38-0.55-0.85l-6.12-7.82L3.77,14.84z"/>
	<path class="st1" d="M3.77,14.84v5.03c0,0.34,0.05,0.58,0.16,0.73c0.11,0.14,0.32,0.26,0.63,0.34v0.4H1.03v-0.4
		c0.31-0.08,0.52-0.19,0.63-0.33c0.11-0.14,0.16-0.38,0.16-0.73V5.88c0-0.35-0.05-0.59-0.16-0.74C1.56,5,1.35,4.89,1.03,4.82V4.42
		h3.53v0.39C4.25,4.9,4.04,5.01,3.93,5.15C3.82,5.29,3.77,5.54,3.77,5.88v7.02l9.12-7.14c0.32-0.25,0.48-0.45,0.48-0.61
		c0-0.18-0.16-0.3-0.47-0.35V4.42h4.46v0.39c-0.49,0.03-0.98,0.24-1.46,0.61l-6.87,5.33l7.56,9.57c0.18,0.23,0.35,0.39,0.51,0.46
		c0.16,0.08,0.4,0.13,0.72,0.14v0.4H13.7v-0.4c0.35-0.08,0.53-0.2,0.53-0.36c0-0.1-0.18-0.38-0.55-0.85l-6.12-7.82L3.77,14.84z"/>
	<path class="st0" d="M33.75,14.97l-3.81-8.35l-3.8,8.35H33.75z M34.47,16.58h-9.04l-1.49,3.21c-0.14,0.31-0.21,0.52-0.21,0.64
		c0,0.25,0.24,0.41,0.73,0.49v0.4h-3.77v-0.4c0.34-0.06,0.6-0.18,0.77-0.37c0.18-0.19,0.41-0.6,0.7-1.24l6.19-13.36
		c0.15-0.32,0.22-0.54,0.22-0.66c0-0.22-0.2-0.38-0.61-0.48v-0.4h4.11v0.4c-0.41,0.13-0.61,0.31-0.61,0.52
		c0,0.09,0.07,0.3,0.22,0.62l5.93,12.88c0.44,0.95,0.73,1.51,0.87,1.67c0.14,0.16,0.45,0.31,0.92,0.42v0.4H35.4v-0.4
		c0.48-0.07,0.72-0.25,0.72-0.55c0-0.13-0.09-0.39-0.27-0.77L34.47,16.58z"/>
	<path class="st1" d="M33.75,14.97l-3.81-8.35l-3.8,8.35H33.75z M34.47,16.58h-9.04l-1.49,3.21c-0.14,0.31-0.21,0.52-0.21,0.64
		c0,0.25,0.24,0.41,0.73,0.49v0.4h-3.77v-0.4c0.34-0.06,0.6-0.18,0.77-0.37c0.18-0.19,0.41-0.6,0.7-1.24l6.19-13.36
		c0.15-0.32,0.22-0.54,0.22-0.66c0-0.22-0.2-0.38-0.61-0.48v-0.4h4.11v0.4c-0.41,0.13-0.61,0.31-0.61,0.52
		c0,0.09,0.07,0.3,0.22,0.62l5.93,12.88c0.44,0.95,0.73,1.51,0.87,1.67c0.14,0.16,0.45,0.31,0.92,0.42v0.4H35.4v-0.4
		c0.48-0.07,0.72-0.25,0.72-0.55c0-0.13-0.09-0.39-0.27-0.77L34.47,16.58z"/>
	<path class="st0" d="M53.37,21.32L46.26,7.11v12.75c0,0.34,0.05,0.58,0.16,0.73c0.11,0.14,0.32,0.26,0.63,0.34v0.4h-3.34v-0.4
		c0.31-0.08,0.52-0.19,0.63-0.33c0.11-0.14,0.16-0.38,0.16-0.73V5.88c0-0.35-0.05-0.59-0.16-0.74C44.23,5,44.02,4.89,43.71,4.82
		v-0.4h4.37v0.4c-0.4,0.14-0.61,0.31-0.61,0.52c0,0.1,0.14,0.42,0.41,0.95l5.63,11.14l5.66-11.24c0.2-0.4,0.3-0.68,0.3-0.84
		c0-0.21-0.2-0.39-0.61-0.53v-0.4h4.42v0.4c-0.31,0.08-0.52,0.19-0.63,0.33c-0.11,0.14-0.16,0.38-0.16,0.73v13.98
		c0,0.34,0.05,0.58,0.16,0.73c0.11,0.14,0.32,0.26,0.63,0.34v0.4h-3.53v-0.4c0.32-0.08,0.53-0.19,0.64-0.33
		c0.1-0.14,0.15-0.39,0.15-0.73V7.11L53.37,21.32z"/>
	<path class="st1" d="M53.37,21.32L46.26,7.11v12.75c0,0.34,0.05,0.58,0.16,0.73c0.11,0.14,0.32,0.26,0.63,0.34v0.4h-3.34v-0.4
		c0.31-0.08,0.52-0.19,0.63-0.33c0.11-0.14,0.16-0.38,0.16-0.73V5.88c0-0.35-0.05-0.59-0.16-0.74C44.23,5,44.02,4.89,43.71,4.82
		v-0.4h4.37v0.4c-0.4,0.14-0.61,0.31-0.61,0.52c0,0.1,0.14,0.42,0.41,0.95l5.63,11.14l5.66-11.24c0.2-0.4,0.3-0.68,0.3-0.84
		c0-0.21-0.2-0.39-0.61-0.53v-0.4h4.42v0.4c-0.31,0.08-0.52,0.19-0.63,0.33c-0.11,0.14-0.16,0.38-0.16,0.73v13.98
		c0,0.34,0.05,0.58,0.16,0.73c0.11,0.14,0.32,0.26,0.63,0.34v0.4h-3.53v-0.4c0.32-0.08,0.53-0.19,0.64-0.33
		c0.1-0.14,0.15-0.39,0.15-0.73V7.11L53.37,21.32z"/>
	<path class="st0" d="M70.31,19.86V5.88c0-0.35-0.05-0.59-0.16-0.74C70.04,5,69.83,4.89,69.52,4.82v-0.4h3.53v0.4
		c-0.31,0.08-0.52,0.19-0.63,0.34c-0.11,0.14-0.16,0.38-0.16,0.73v13.98c0,0.35,0.05,0.59,0.16,0.73c0.1,0.14,0.31,0.25,0.64,0.33
		v0.4h-3.53v-0.4c0.32-0.08,0.53-0.19,0.64-0.33C70.26,20.45,70.31,20.21,70.31,19.86"/>
	<path class="st1" d="M70.31,19.86V5.88c0-0.35-0.05-0.59-0.16-0.74C70.04,5,69.83,4.89,69.52,4.82v-0.4h3.53v0.4
		c-0.31,0.08-0.52,0.19-0.63,0.34c-0.11,0.14-0.16,0.38-0.16,0.73v13.98c0,0.35,0.05,0.59,0.16,0.73c0.1,0.14,0.31,0.25,0.64,0.33
		v0.4h-3.53v-0.4c0.32-0.08,0.53-0.19,0.64-0.33C70.26,20.45,70.31,20.21,70.31,19.86z"/>
	<path class="st0" d="M106,5.88l-1.83,3.06l-0.33-0.2c0.08-0.25,0.11-0.44,0.11-0.58c0-0.34-0.53-0.76-1.58-1.28
		c-1.45-0.71-3.04-1.06-4.75-1.06c-2.31,0-4.18,0.64-5.62,1.92c-1.46,1.3-2.19,2.99-2.19,5.06c0,2.06,0.76,3.77,2.28,5.13
		c1.47,1.33,3.28,1.99,5.43,1.99c2.1,0,3.96-0.61,5.57-1.84c0.73-0.55,1.09-0.94,1.09-1.18c0-0.11-0.07-0.3-0.21-0.57l0.3-0.24
		l2.2,2.67l-0.31,0.25c-0.23-0.21-0.42-0.31-0.57-0.31c-0.09,0-0.25,0.09-0.47,0.26c-0.76,0.57-1.39,1-1.89,1.28
		c-0.5,0.29-1.05,0.53-1.64,0.73c-1.23,0.42-2.58,0.63-4.06,0.63c-2.85,0-5.16-0.79-6.95-2.38c-1.87-1.66-2.81-3.78-2.81-6.35
		c0-2.03,0.59-3.79,1.76-5.28c1.83-2.33,4.58-3.49,8.23-3.49c2.42,0,4.76,0.64,7.02,1.92c0.15,0.08,0.25,0.12,0.31,0.12
		c0.11,0,0.3-0.16,0.58-0.47L106,5.88z"/>
	<path class="st0" d="M126.07,13.44h-11.58v6.43c0,0.35,0.05,0.59,0.15,0.73c0.1,0.14,0.32,0.25,0.64,0.33v0.4h-3.53v-0.4
		c0.32-0.08,0.53-0.19,0.64-0.33c0.1-0.14,0.15-0.38,0.15-0.73V5.88c0-0.35-0.05-0.59-0.16-0.74c-0.11-0.14-0.32-0.25-0.63-0.33
		v-0.4h3.53v0.4c-0.31,0.08-0.53,0.19-0.63,0.34c-0.11,0.14-0.16,0.38-0.16,0.73v5.94h11.58V5.88c0-0.35-0.05-0.59-0.16-0.74
		c-0.11-0.14-0.32-0.25-0.63-0.33v-0.4h3.53v0.4c-0.31,0.08-0.52,0.19-0.63,0.34c-0.11,0.14-0.16,0.38-0.16,0.73v13.98
		c0,0.34,0.05,0.58,0.16,0.72c0.11,0.15,0.32,0.26,0.63,0.34v0.4h-3.53v-0.4c0.31-0.08,0.52-0.19,0.63-0.33
		c0.11-0.14,0.16-0.38,0.16-0.73V13.44z"/>
	<path class="st0" d="M146.33,14.97l-3.81-8.35l-3.8,8.35H146.33z M147.05,16.58h-9.04l-1.49,3.21c-0.14,0.31-0.21,0.52-0.21,0.64
		c0,0.25,0.24,0.41,0.73,0.49v0.4h-3.77v-0.4c0.34-0.06,0.6-0.18,0.77-0.37c0.18-0.19,0.41-0.6,0.7-1.24l6.19-13.36
		c0.15-0.32,0.22-0.54,0.22-0.66c0-0.22-0.2-0.38-0.61-0.48v-0.4h4.11v0.4c-0.4,0.13-0.61,0.31-0.61,0.52c0,0.09,0.07,0.3,0.22,0.62
		l5.93,12.88c0.44,0.95,0.73,1.51,0.87,1.67c0.14,0.16,0.45,0.31,0.92,0.42v0.4h-4.01v-0.4c0.48-0.07,0.72-0.25,0.72-0.55
		c0-0.13-0.09-0.39-0.27-0.77L147.05,16.58z"/>
	<path class="st0" d="M159.03,12.11h6.85c0.93,0,1.64-0.04,2.11-0.12c0.48-0.08,0.89-0.22,1.26-0.43c0.85-0.49,1.27-1.32,1.27-2.49
		c0-1.17-0.44-2.01-1.31-2.5c-0.39-0.22-0.82-0.36-1.29-0.43c-0.48-0.07-1.21-0.11-2.21-0.11h-6.67V12.11z M159.03,13.72v6.14
		c0,0.34,0.05,0.58,0.16,0.72c0.11,0.14,0.32,0.26,0.63,0.34v0.4h-3.53v-0.4c0.31-0.08,0.52-0.19,0.63-0.33
		c0.11-0.14,0.16-0.38,0.16-0.73V5.88c0-0.35-0.05-0.59-0.16-0.74c-0.11-0.14-0.32-0.25-0.63-0.33V4.42h9.27
		c1.27,0,2.28,0.07,3.01,0.2c0.74,0.14,1.38,0.37,1.93,0.71c0.56,0.35,1.01,0.82,1.36,1.42c0.4,0.69,0.6,1.46,0.6,2.32
		c0,1.29-0.43,2.34-1.28,3.15c-0.85,0.81-2.03,1.28-3.52,1.39l4.3,6.68c0.26,0.41,0.63,0.62,1.12,0.62v0.4h-3.91v-0.4
		c0.4-0.07,0.61-0.18,0.61-0.34c0-0.08-0.15-0.35-0.43-0.8l-3.84-6.06H159.03z"/>
	<path class="st0" d="M179.11,19.86V5.88c0-0.35-0.05-0.59-0.16-0.74c-0.11-0.14-0.32-0.25-0.63-0.33v-0.4h3.53v0.4
		c-0.31,0.08-0.52,0.19-0.63,0.34c-0.11,0.14-0.16,0.38-0.16,0.73v13.98c0,0.35,0.05,0.59,0.15,0.73c0.1,0.14,0.32,0.25,0.64,0.33
		v0.4h-3.53v-0.4c0.32-0.08,0.53-0.19,0.64-0.33C179.05,20.45,179.11,20.21,179.11,19.86"/>
	<path class="st0" d="M203.97,5.47l-1.77,3.2l-0.35-0.19c0.14-0.37,0.21-0.6,0.21-0.69c0-0.25-0.31-0.52-0.92-0.8
		c-1.66-0.78-3.42-1.16-5.28-1.16c-1.53,0-2.86,0.28-3.99,0.85c-0.54,0.28-0.98,0.64-1.29,1.09c-0.32,0.45-0.48,0.92-0.48,1.41
		c0,0.41,0.12,0.8,0.37,1.17c0.25,0.37,0.57,0.64,0.98,0.82c0.45,0.21,0.97,0.35,1.58,0.43c0.61,0.08,1.6,0.14,2.97,0.18
		c1.9,0.06,3.26,0.15,4.07,0.27s1.49,0.33,2.02,0.63c1.4,0.78,2.11,1.98,2.11,3.58c0,1.53-0.64,2.78-1.91,3.75
		c-1.41,1.09-3.36,1.63-5.83,1.63c-1.43,0-2.68-0.14-3.74-0.43c-1.06-0.29-2.34-0.82-3.81-1.6c-0.41-0.19-0.66-0.28-0.73-0.28
		c-0.12,0-0.32,0.15-0.58,0.45l-0.33-0.21l1.86-3.11l0.35,0.2c-0.16,0.33-0.24,0.55-0.24,0.67c0,0.26,0.53,0.67,1.59,1.23
		c0.95,0.5,1.86,0.85,2.74,1.07c0.88,0.22,1.83,0.33,2.87,0.33c2.09,0,3.67-0.46,4.75-1.38c0.72-0.61,1.08-1.34,1.08-2.18
		c0-1.11-0.62-1.87-1.85-2.29c-0.4-0.14-0.81-0.23-1.23-0.27c-0.42-0.04-1.63-0.09-3.62-0.17c-1.42-0.06-2.53-0.16-3.34-0.32
		c-0.81-0.16-1.52-0.41-2.15-0.77c-0.59-0.33-1.05-0.79-1.39-1.39c-0.34-0.6-0.51-1.24-0.51-1.94c0-1.2,0.45-2.22,1.34-3.08
		c0.66-0.63,1.57-1.12,2.74-1.48c1.16-0.36,2.44-0.54,3.83-0.54c1.13,0,2.18,0.11,3.15,0.34c0.97,0.22,2.07,0.61,3.29,1.16
		c0.27,0.12,0.44,0.17,0.51,0.17c0.15,0,0.35-0.17,0.61-0.5L203.97,5.47z"/>
	<path class="st0" d="M219.27,21.32l-7.11-14.21v12.75c0,0.34,0.05,0.58,0.16,0.73c0.11,0.14,0.32,0.26,0.63,0.34v0.4h-3.34v-0.4
		c0.31-0.08,0.52-0.19,0.63-0.33c0.11-0.14,0.16-0.38,0.16-0.73V5.88c0-0.35-0.05-0.59-0.16-0.74c-0.11-0.14-0.32-0.25-0.63-0.33
		v-0.4h4.37v0.4c-0.4,0.14-0.61,0.31-0.61,0.52c0,0.1,0.14,0.42,0.41,0.95l5.63,11.14l5.65-11.24c0.2-0.4,0.3-0.68,0.3-0.84
		c0-0.21-0.2-0.39-0.61-0.53v-0.4h4.42v0.4c-0.31,0.08-0.53,0.19-0.63,0.33c-0.11,0.14-0.16,0.38-0.16,0.73v13.98
		c0,0.34,0.05,0.58,0.16,0.73c0.11,0.14,0.32,0.26,0.63,0.34v0.4h-3.53v-0.4c0.32-0.08,0.53-0.19,0.64-0.33
		c0.1-0.14,0.15-0.39,0.15-0.73V7.11L219.27,21.32z"/>
	<path class="st0" d="M246.7,14.97l-3.81-8.35l-3.8,8.35H246.7z M247.41,16.58h-9.04l-1.49,3.21c-0.14,0.31-0.21,0.52-0.21,0.64
		c0,0.25,0.24,0.41,0.73,0.49v0.4h-3.77v-0.4c0.34-0.06,0.6-0.18,0.77-0.37c0.18-0.19,0.41-0.6,0.7-1.24l6.19-13.36
		c0.15-0.32,0.22-0.54,0.22-0.66c0-0.22-0.2-0.38-0.61-0.48v-0.4h4.11v0.4c-0.4,0.13-0.61,0.31-0.61,0.52c0,0.09,0.07,0.3,0.22,0.62
		l5.93,12.88c0.44,0.95,0.73,1.51,0.87,1.67c0.14,0.16,0.45,0.31,0.92,0.42v0.4h-4.01v-0.4c0.48-0.07,0.72-0.25,0.72-0.55
		c0-0.13-0.09-0.39-0.27-0.77L247.41,16.58z"/>
	<path class="st0" d="M280.63,14.88h5.22v-2.71h-5.22V14.88z M285.85,9h-5.22v2.64h5.22V9z M274.38,14.88h5.07v-2.71h-5.07V14.88z
		 M279.45,9h-5.07v2.64h5.07V9z M285.85,15.42h-4.58c2.04,2.43,5.76,4.43,9.02,5.28l-0.02,0.24c-0.52,0.07-0.95,0.43-1.12,0.99
		c-3.29-1.2-6.57-3.52-8.42-6.51h-0.11v6.53c0,0.07-0.15,0.47-1.18,0.47v-6.68c-2.17,2.66-5.46,4.83-9.2,6.25l-0.21-0.36
		c3.24-1.55,6.21-3.8,8.08-6.21h-3.74v0.79c0,0-0.19,0.43-1.18,0.43V7.86l1.31,0.6h4.94V6.07h-9.13l-0.13-0.54h9.26V2.55l2.11,0.19
		c-0.04,0.3-0.24,0.45-0.92,0.54v2.26h6.34l1.05-1.31L290,5.6c-0.17,0.32-0.41,0.47-1.03,0.47h-8.34v2.39h5.01l0.58-0.8l1.74,1.25
		c-0.15,0.17-0.49,0.34-0.92,0.43v6.75c0,0.06-0.39,0.47-1.18,0.47V15.42z"/>
	<path class="st0" d="M309.12,16.41c4.6,1.76,5.97,3.76,5.97,4.73c0,0.36-0.19,0.58-0.49,0.58c-0.15,0-0.3-0.04-0.47-0.15
		c-0.9-1.52-3.37-3.69-5.18-4.9L309.12,16.41z M300.78,14.13h10.21v-4.7h-10.21V14.13z M310.98,14.67h-4.6v5.99
		c0,0.99-0.3,1.63-2.25,1.81c0-0.97-1.03-1.07-2.73-1.16v-0.32h3.27c0.43,0,0.54-0.06,0.54-0.32v-5.99h-4.43v0.73
		c0,0.02-0.17,0.43-1.18,0.43V8.29l1.31,0.6h9.86l0.6-0.82l1.76,1.29c-0.15,0.17-0.52,0.34-0.97,0.43v5.48
		c0,0.07-0.37,0.43-1.18,0.43V14.67z M313.82,4.4l2,1.4c-0.17,0.3-0.41,0.47-1.03,0.47h-18.67l-0.15-0.54h9.24v-3.2l2.21,0.19
		c-0.02,0.34-0.28,0.49-1.03,0.6v2.41h6.38L313.82,4.4z M295.8,21.37c2.08-1.29,4.32-3.39,5.39-5.01l1.68,0.94
		c-0.11,0.15-0.21,0.22-0.43,0.22c-0.09,0-0.21-0.02-0.39-0.06c-1.27,1.42-3.65,3.2-6.04,4.28L295.8,21.37z"/>
	<path class="st0" d="M324.77,1.76h0.86v21.48h-0.86V1.76z"/>
	<path class="st0" d="M346.01,19.14v2.05h-11.48c-0.02-0.51,0.07-1.01,0.25-1.48c0.29-0.78,0.76-1.55,1.4-2.31
		c0.64-0.76,1.57-1.63,2.79-2.63c1.89-1.55,3.16-2.77,3.83-3.68c0.66-0.9,0.99-1.76,0.99-2.56c0-0.84-0.3-1.56-0.91-2.14
		c-0.6-0.58-1.39-0.87-2.36-0.87c-1.03,0-1.85,0.31-2.46,0.92c-0.62,0.62-0.93,1.47-0.93,2.56l-2.19-0.22
		c0.15-1.64,0.71-2.88,1.69-3.74c0.98-0.86,2.29-1.28,3.94-1.28c1.66,0,2.98,0.46,3.96,1.38c0.97,0.92,1.46,2.07,1.46,3.44
		c0,0.69-0.14,1.38-0.43,2.05c-0.28,0.67-0.76,1.38-1.42,2.12c-0.66,0.74-1.76,1.76-3.29,3.06c-1.28,1.07-2.1,1.8-2.46,2.18
		c-0.36,0.38-0.66,0.77-0.9,1.16H346.01z"/>
	<path class="st0" d="M352.91,12.62c0,2.85,0.33,4.75,1,5.69c0.67,0.94,1.49,1.42,2.47,1.42s1.8-0.47,2.47-1.42
		c0.67-0.95,1-2.84,1-5.68c0-2.86-0.33-4.76-1-5.7c-0.67-0.94-1.5-1.41-2.49-1.41c-0.98,0-1.76,0.41-2.34,1.24
		C353.27,7.82,352.91,9.77,352.91,12.62 M350.72,12.62c0-2.05,0.21-3.7,0.63-4.96c0.42-1.25,1.05-2.22,1.88-2.9
		c0.83-0.68,1.88-1.02,3.14-1.02c0.93,0,1.75,0.19,2.45,0.56c0.7,0.38,1.28,0.92,1.74,1.62c0.46,0.71,0.82,1.57,1.08,2.58
		c0.26,1.01,0.39,2.38,0.39,4.1c0,2.04-0.21,3.68-0.63,4.93c-0.42,1.25-1.04,2.22-1.88,2.9c-0.83,0.68-1.89,1.02-3.16,1.02
		c-1.67,0-2.99-0.6-3.94-1.8C351.29,18.24,350.72,15.88,350.72,12.62"/>
	<path class="st0" d="M377.84,19.14v2.05h-11.48c-0.02-0.51,0.07-1.01,0.25-1.48c0.29-0.78,0.76-1.55,1.4-2.31
		c0.64-0.76,1.57-1.63,2.79-2.63c1.89-1.55,3.16-2.77,3.83-3.68c0.66-0.9,0.99-1.76,0.99-2.56c0-0.84-0.3-1.56-0.91-2.14
		c-0.6-0.58-1.39-0.87-2.36-0.87c-1.03,0-1.85,0.31-2.46,0.92c-0.62,0.62-0.93,1.47-0.93,2.56l-2.19-0.22
		c0.15-1.64,0.71-2.88,1.69-3.74c0.98-0.86,2.29-1.28,3.94-1.28c1.66,0,2.98,0.46,3.96,1.38c0.97,0.92,1.46,2.07,1.46,3.44
		c0,0.69-0.14,1.38-0.43,2.05c-0.28,0.67-0.76,1.38-1.42,2.12c-0.66,0.74-1.76,1.76-3.29,3.06c-1.28,1.07-2.1,1.8-2.46,2.18
		c-0.36,0.38-0.66,0.77-0.9,1.16H377.84z"/>
	<path class="st0" d="M390.58,21.19h-2.13V7.6c-0.51,0.49-1.19,0.98-2.02,1.47c-0.83,0.49-1.58,0.86-2.24,1.1V8.11
		c1.19-0.56,2.24-1.24,3.13-2.04c0.89-0.8,1.52-1.57,1.89-2.32h1.37V21.19z"/>
	<path class="st0" d="M411.44,9.17c0.06-0.32,0.56-0.67,1.1-0.67c0.88,0,2.28,0.58,2.28,1.16c0,0.17-0.15,0.26-0.26,0.36
		c-0.11,0.11-0.26,0.47-0.41,1.12c-0.99,3.89-2.84,7.54-7.41,10.33l-0.36-0.43c5.59-4.06,6.47-10.4,6.47-11.02
		c0-0.67-0.49-0.82-1.01-0.82c-0.11,0-0.24,0-0.37,0.02L411.44,9.17z M415.91,10.44c2.02-1.93,3.39-4.62,3.39-4.73
		c0-0.09-0.09-0.15-0.17-0.15c-2.62,0.15-7.86,0.54-9,0.69c-0.97,0.11-1.65,0.24-1.98,0.34c-0.45,0.17-0.64,0.39-1.03,0.39
		c-0.79,0-1.85-1.27-1.85-1.93c0-0.52,0.15-0.82,0.56-1.12l0.06,0.02c0.04,0.84,0.73,1.42,1.91,1.42c2.15,0,9.15-0.43,10.81-0.58
		c0.43-0.04,0.6-0.06,0.82-0.24c0.3-0.22,0.52-0.45,0.71-0.45c0.36,0,1.87,1.33,1.87,1.85c0,0.26-0.32,0.39-0.77,0.47
		c-0.34,0.06-0.64,0.22-0.99,0.67c-0.88,1.07-2.21,2.58-3.89,3.76L415.91,10.44z"/>
	<path class="st0" d="M431.2,5.26c0.17-0.21,0.54-0.34,0.84-0.36c0.67,0,1.38,0.49,1.68,0.95c0.26,0.02,0.52,0.04,0.82,0.04
		c1.7,0,7.43-0.28,9.67-0.43c0.28-0.02,0.45-0.17,0.73-0.41c0.3-0.24,0.45-0.41,0.64-0.41c0.47,0,1.8,1.29,1.8,1.57
		c0,0.28-0.39,0.39-0.64,0.52c-0.21,0.11-0.3,0.13-0.37,0.41c-1.16,6.17-3.22,11.22-11.02,14.33l-0.34-0.49
		c6.7-3.09,9.13-8.08,9.86-14.29c0.02-0.11,0.02-0.17,0.02-0.24c0-0.15-0.07-0.19-0.37-0.19c-2.6,0.06-6.72,0.43-8.64,0.58
		c-0.41,0.04-0.9,0.11-1.33,0.11c-0.24,0-0.47-0.02-0.67-0.09c-0.07,0.13-0.09,0.34-0.09,0.54c0,0.71,0.47,4.15,0.47,4.94
		c0,0.52-0.17,0.82-0.56,0.82c-0.6,0-1.07-1.18-1.07-1.74c0-0.39,0.17-0.65,0.17-1.03c0-0.6-0.19-2.94-0.43-3.76
		c-0.19-0.62-0.49-1.1-1.16-1.27L431.2,5.26z"/>
	<path class="st0" d="M469.48,11.7c1.5,0,2.34-0.17,2.64-0.17c0.88,0,2.21,0.34,2.21,0.84c0,0.36-0.36,0.52-1.16,0.52
		c-0.39,0-0.79,0-1.2-0.02c-0.92-0.02-2.6-0.04-3.8-0.04c-4.81,0-8.68,0.02-9.65,0.36c-0.28,0.11-0.56,0.32-0.92,0.32
		c-0.71,0-2.11-1.25-2.11-2.11c0-0.47,0.13-0.8,0.41-1.01l0.15-0.02c0.17,0.97,0.77,1.33,3.24,1.33H469.48z"/>
	<path class="st0" d="M496.25,3.63c1.7,0.69,2.9,1.83,2.9,2.75c0,0.54-0.32,0.73-0.58,0.73c-0.3,0-0.45-0.11-0.64-0.62
		c-0.26-0.73-0.82-1.68-2.02-2.47L496.25,3.63z M494.02,5c1.67,0.69,2.88,1.83,2.88,2.75c0,0.54-0.32,0.75-0.58,0.75
		c-0.3,0-0.45-0.13-0.64-0.62c-0.26-0.75-0.82-1.72-2-2.49L494.02,5z M486.47,4.06c0.11-0.32,0.52-0.65,0.97-0.65
		c0.95,0,2.62,0.62,2.62,1.42c0,0.19-0.19,0.32-0.34,0.56c-0.07,0.09-0.11,0.3-0.13,0.62c-0.04,0.88-0.06,2.62-0.11,4.36
		c2.56,0.34,4.88,0.97,6.12,1.68c1.25,0.71,1.83,1.18,1.83,1.91c0,0.41-0.28,0.69-0.6,0.69c-0.52,0-1.12-0.56-1.65-1.03
		c-0.92-0.84-3.09-1.95-5.69-2.66c-0.02,1.57-0.02,3.18-0.02,4.51c0,0.71,0.06,4.21,0.06,5.01c0,0.9-0.37,1.22-0.73,1.22
		c-0.8,0-1.03-2-1.18-2.56c0.39-0.56,0.47-0.92,0.56-3.27c0.02-0.97,0.04-3.16,0.04-5.26c0-1.83-0.02-3.61-0.06-4.51
		c-0.02-0.9-0.15-2.02-1.65-2.02L486.47,4.06z"/>
</g>
<g>
	<path class="st2" d="M451.17,18.49"/>
</g>
</svg>
